<svg width="279" height="140" viewBox="0 0 279 140" fill="none" xmlns="http://www.w3.org/2000/svg">
<mask id="path-1-inside-1_29_27" fill="white">
<path fill-rule="evenodd" clip-rule="evenodd" d="M46.7128 88.9116C38.2702 78.5156 37.932 64.1786 44.905 53.5481C46.2489 51.4992 49.147 51.5813 50.6916 53.4834L56.5772 60.7308C57.6666 62.0722 57.712 63.9443 57.1105 65.5643C56.5682 67.0248 56.2718 68.605 56.2718 70.2543C56.2718 77.6959 62.3044 83.7284 69.746 83.7284C70.4257 83.7284 71.0936 83.6781 71.7463 83.581C73.4544 83.3268 75.2762 83.7563 76.3649 85.0969L82.2036 92.2864C83.7482 94.1885 83.234 97.0417 80.953 97.9367C69.1179 102.58 55.1553 99.3075 46.7128 88.9116ZM82.5749 74.3857C82.0709 75.9519 82.1638 77.7194 83.201 78.9966L89.3082 86.5168C90.8529 88.4189 93.7509 88.501 95.0949 86.4522C102.068 75.8216 101.73 61.4845 93.2872 51.0884C84.8446 40.6924 70.8818 37.4197 59.0467 42.0634C56.7657 42.9584 56.2515 45.8116 57.7962 47.7137L63.9516 55.2933C64.9877 56.5692 66.6965 57.0241 68.3312 56.8535C68.7962 56.805 69.2682 56.7802 69.746 56.7802C77.1875 56.7802 83.2201 62.8127 83.2201 70.2543C83.2201 71.6955 82.9939 73.0838 82.5749 74.3857Z"/>
</mask>
<path fill-rule="evenodd" clip-rule="evenodd" d="M46.7128 88.9116C38.2702 78.5156 37.932 64.1786 44.905 53.5481C46.2489 51.4992 49.147 51.5813 50.6916 53.4834L56.5772 60.7308C57.6666 62.0722 57.712 63.9443 57.1105 65.5643C56.5682 67.0248 56.2718 68.605 56.2718 70.2543C56.2718 77.6959 62.3044 83.7284 69.746 83.7284C70.4257 83.7284 71.0936 83.6781 71.7463 83.581C73.4544 83.3268 75.2762 83.7563 76.3649 85.0969L82.2036 92.2864C83.7482 94.1885 83.234 97.0417 80.953 97.9367C69.1179 102.58 55.1553 99.3075 46.7128 88.9116ZM82.5749 74.3857C82.0709 75.9519 82.1638 77.7194 83.201 78.9966L89.3082 86.5168C90.8529 88.4189 93.7509 88.501 95.0949 86.4522C102.068 75.8216 101.73 61.4845 93.2872 51.0884C84.8446 40.6924 70.8818 37.4197 59.0467 42.0634C56.7657 42.9584 56.2515 45.8116 57.7962 47.7137L63.9516 55.2933C64.9877 56.5692 66.6965 57.0241 68.3312 56.8535C68.7962 56.805 69.2682 56.7802 69.746 56.7802C77.1875 56.7802 83.2201 62.8127 83.2201 70.2543C83.2201 71.6955 82.9939 73.0838 82.5749 74.3857Z" fill="white" fill-opacity="0.2"/>
<path d="M46.7128 88.9116L47.489 88.2812L46.7128 88.9116ZM93.2872 51.0884L94.0635 50.458L93.2872 51.0884ZM59.0467 42.0634L58.6815 41.1325L59.0467 42.0634ZM57.7962 47.7137L58.5724 47.0833L57.7962 47.7137ZM95.0949 86.4522L94.2587 85.9037L95.0949 86.4522ZM82.2036 92.2864L82.9798 91.656L82.2036 92.2864ZM80.953 97.9367L80.5877 97.0058L80.953 97.9367ZM83.201 78.9966L82.4248 79.627L83.201 78.9966ZM82.5749 74.3857L81.623 74.0794L82.5749 74.3857ZM56.5772 60.7308L55.801 61.3612L56.5772 60.7308ZM71.7463 83.581L71.5991 82.5919L71.7463 83.581ZM76.3649 85.0969L75.5887 85.7273L76.3649 85.0969ZM68.3312 56.8535L68.2275 55.8589L68.3312 56.8535ZM50.6916 53.4834L49.9154 54.1138L50.6916 53.4834ZM44.0688 52.9996C36.8639 63.9837 37.2116 78.7983 45.9365 89.542L47.489 88.2812C39.3289 78.2329 39 64.3736 45.7411 54.0966L44.0688 52.9996ZM57.3535 60.1004L51.4679 52.853L49.9154 54.1138L55.801 61.3612L57.3535 60.1004ZM57.2718 70.2543C57.2718 68.7256 57.5464 67.2632 58.048 65.9124L56.1731 65.2162C55.59 66.7865 55.2718 68.4844 55.2718 70.2543H57.2718ZM69.746 82.7284C62.8567 82.7284 57.2718 77.1436 57.2718 70.2543H55.2718C55.2718 78.2481 61.7521 84.7284 69.746 84.7284V82.7284ZM71.5991 82.5919C70.995 82.6818 70.3762 82.7284 69.746 82.7284V84.7284C70.4751 84.7284 71.1922 84.6744 71.8935 84.5701L71.5991 82.5919ZM82.9798 91.656L77.1412 84.4664L75.5887 85.7273L81.4273 92.9168L82.9798 91.656ZM45.9365 89.542C54.6614 100.286 69.0896 103.666 81.3182 98.8676L80.5877 97.0058C69.1463 101.495 55.6492 98.3294 47.489 88.2812L45.9365 89.542ZM82.4248 79.627L88.5319 87.1472L90.0845 85.8864L83.9773 78.3662L82.4248 79.627ZM95.931 87.0007C103.136 76.0166 102.788 61.2018 94.0635 50.458L92.511 51.7188C100.671 61.7671 101 75.6267 94.2587 85.9037L95.931 87.0007ZM94.0635 50.458C85.3385 39.7143 70.9102 36.3344 58.6815 41.1325L59.412 42.9943C70.8535 38.5051 84.3507 41.6705 92.511 51.7188L94.0635 50.458ZM57.0199 48.3441L63.1753 55.9237L64.7278 54.6629L58.5724 47.0833L57.0199 48.3441ZM68.435 57.8481C68.8656 57.8032 69.3029 57.7802 69.746 57.7802V55.7802C69.2335 55.7802 68.7268 55.8068 68.2275 55.8589L68.435 57.8481ZM69.746 57.7802C76.6353 57.7802 82.2201 63.365 82.2201 70.2543H84.2201C84.2201 62.2604 77.7398 55.7802 69.746 55.7802V57.7802ZM82.2201 70.2543C82.2201 71.5902 82.0105 72.8753 81.623 74.0794L83.5269 74.692C83.9773 73.2923 84.2201 71.8007 84.2201 70.2543H82.2201ZM58.6815 41.1325C55.6616 42.3174 55.1251 46.0109 57.0199 48.3441L58.5724 47.0833C57.3779 45.6124 57.8699 43.5994 59.412 42.9943L58.6815 41.1325ZM88.5319 87.1472C90.4267 89.4804 94.1517 89.7132 95.931 87.0007L94.2587 85.9037C93.3501 87.2888 91.279 87.3574 90.0845 85.8864L88.5319 87.1472ZM81.4273 92.9168C82.6219 94.3877 82.1299 96.4007 80.5877 97.0058L81.3182 98.8676C84.3381 97.6827 84.8746 93.9892 82.9798 91.656L81.4273 92.9168ZM83.9773 78.3662C83.2184 77.4317 83.0902 76.0489 83.5269 74.692L81.623 74.0794C81.0517 75.8548 81.1093 78.0072 82.4248 79.627L83.9773 78.3662ZM55.801 61.3612C56.5977 62.3422 56.6954 63.8095 56.1731 65.2162L58.048 65.9124C58.7287 64.0792 58.7355 61.8021 57.3535 60.1004L55.801 61.3612ZM71.8935 84.5701C73.377 84.3493 74.7923 84.7466 75.5887 85.7273L77.1412 84.4664C75.7602 82.7659 73.5319 82.3042 71.5991 82.5919L71.8935 84.5701ZM63.1753 55.9237C64.4893 57.5417 66.5812 58.0416 68.435 57.8481L68.2275 55.8589C66.8118 56.0067 65.4862 55.5967 64.7278 54.6629L63.1753 55.9237ZM45.7411 54.0966C46.6497 52.7114 48.7208 52.6429 49.9154 54.1138L51.4679 52.853C49.5731 50.5198 45.8481 50.2871 44.0688 52.9996L45.7411 54.0966Z" fill="white" mask="url(#path-1-inside-1_29_27)"/>
<path d="M122.27 62.95V68.2H129.32V71.53H122.27V77.08H130.22V80.5H118.07V59.53H130.22V62.95H122.27ZM132.057 72.13C132.057 70.45 132.387 68.96 133.047 67.66C133.727 66.36 134.637 65.36 135.777 64.66C136.937 63.96 138.227 63.61 139.647 63.61C140.887 63.61 141.967 63.86 142.887 64.36C143.827 64.86 144.577 65.49 145.137 66.25V63.88H149.367V80.5H145.137V78.07C144.597 78.85 143.847 79.5 142.887 80.02C141.947 80.52 140.857 80.77 139.617 80.77C138.217 80.77 136.937 80.41 135.777 79.69C134.637 78.97 133.727 77.96 133.047 76.66C132.387 75.34 132.057 73.83 132.057 72.13ZM145.137 72.19C145.137 71.17 144.937 70.3 144.537 69.58C144.137 68.84 143.597 68.28 142.917 67.9C142.237 67.5 141.507 67.3 140.727 67.3C139.947 67.3 139.227 67.49 138.567 67.87C137.907 68.25 137.367 68.81 136.947 69.55C136.547 70.27 136.347 71.13 136.347 72.13C136.347 73.13 136.547 74.01 136.947 74.77C137.367 75.51 137.907 76.08 138.567 76.48C139.247 76.88 139.967 77.08 140.727 77.08C141.507 77.08 142.237 76.89 142.917 76.51C143.597 76.11 144.137 75.55 144.537 74.83C144.937 74.09 145.137 73.21 145.137 72.19ZM158.929 80.77C157.569 80.77 156.349 80.53 155.269 80.05C154.189 79.55 153.329 78.88 152.689 78.04C152.069 77.2 151.729 76.27 151.669 75.25H155.899C155.979 75.89 156.289 76.42 156.829 76.84C157.389 77.26 158.079 77.47 158.899 77.47C159.699 77.47 160.319 77.31 160.759 76.99C161.219 76.67 161.449 76.26 161.449 75.76C161.449 75.22 161.169 74.82 160.609 74.56C160.069 74.28 159.199 73.98 157.999 73.66C156.759 73.36 155.739 73.05 154.939 72.73C154.159 72.41 153.479 71.92 152.899 71.26C152.339 70.6 152.059 69.71 152.059 68.59C152.059 67.67 152.319 66.83 152.839 66.07C153.379 65.31 154.139 64.71 155.119 64.27C156.119 63.83 157.289 63.61 158.629 63.61C160.609 63.61 162.189 64.11 163.369 65.11C164.549 66.09 165.199 67.42 165.319 69.1H161.299C161.239 68.44 160.959 67.92 160.459 67.54C159.979 67.14 159.329 66.94 158.509 66.94C157.749 66.94 157.159 67.08 156.739 67.36C156.339 67.64 156.139 68.03 156.139 68.53C156.139 69.09 156.419 69.52 156.979 69.82C157.539 70.1 158.409 70.39 159.589 70.69C160.789 70.99 161.779 71.3 162.559 71.62C163.339 71.94 164.009 72.44 164.569 73.12C165.149 73.78 165.449 74.66 165.469 75.76C165.469 76.72 165.199 77.58 164.659 78.34C164.139 79.1 163.379 79.7 162.379 80.14C161.399 80.56 160.249 80.77 158.929 80.77ZM183.916 63.88L173.626 88.36H169.156L172.756 80.08L166.096 63.88H170.806L175.096 75.49L179.446 63.88H183.916ZM194.041 59.53C197.081 59.53 199.421 60.24 201.061 61.66C202.701 63.08 203.521 65.08 203.521 67.66C203.521 68.36 203.441 69.16 203.281 70.06C202.901 72.22 202.131 74.09 200.971 75.67C199.811 77.23 198.321 78.43 196.501 79.27C194.701 80.09 192.641 80.5 190.321 80.5H184.111L187.801 59.53H194.041ZM190.621 78.85C193.541 78.85 195.901 78.08 197.701 76.54C199.501 74.98 200.641 72.82 201.121 70.06C201.261 69.34 201.331 68.62 201.331 67.9C201.331 65.78 200.691 64.14 199.411 62.98C198.131 61.82 196.231 61.24 193.711 61.24H189.601L186.511 78.85H190.621ZM215.012 63.88C216.392 63.88 217.572 64.15 218.552 64.69C219.532 65.21 220.272 65.93 220.772 66.85C221.292 67.77 221.552 68.82 221.552 70C221.552 70.54 221.512 71.02 221.432 71.44C221.312 72.04 221.192 72.58 221.072 73.06H207.482C207.422 73.44 207.392 73.8 207.392 74.14C207.392 75.68 207.852 76.87 208.772 77.71C209.712 78.55 210.902 78.97 212.342 78.97C213.722 78.97 214.932 78.64 215.972 77.98C217.012 77.32 217.772 76.43 218.252 75.31H220.502C219.822 76.91 218.732 78.22 217.232 79.24C215.752 80.24 214.022 80.74 212.042 80.74C210.002 80.74 208.362 80.16 207.122 79C205.902 77.82 205.292 76.22 205.292 74.2C205.292 73.6 205.352 72.97 205.472 72.31C205.772 70.61 206.372 69.12 207.272 67.84C208.192 66.56 209.322 65.58 210.662 64.9C212.002 64.22 213.452 63.88 215.012 63.88ZM219.272 71.5C219.372 70.94 219.422 70.47 219.422 70.09C219.422 68.67 218.972 67.58 218.072 66.82C217.172 66.06 216.022 65.68 214.622 65.68C213.602 65.68 212.622 65.9 211.682 66.34C210.742 66.78 209.922 67.44 209.222 68.32C208.522 69.2 208.042 70.26 207.782 71.5H219.272ZM229.564 78.37L237.574 64.12H239.854L230.374 80.5H227.944L224.284 64.12H226.534L229.564 78.37Z" fill="white"/>
</svg>
